<?xml version="1.0" standalone="no"?>
<!DOCTYPE svg PUBLIC "-//W3C//DTD SVG 20010904//EN"
 "http://www.w3.org/TR/2001/REC-SVG-20010904/DTD/svg10.dtd">
<svg version="1.0" xmlns="http://www.w3.org/2000/svg"
 width="200.000000pt" height="187.000000pt" viewBox="0 0 200.000000 187.000000"
 preserveAspectRatio="xMidYMid meet">

<g transform="translate(0.000000,187.000000) scale(0.100000,-0.100000)"
fill="#000000" stroke="none">
<path d="M750 1378 c-62 -24 -151 -107 -196 -183 -42 -73 -91 -214 -103 -295
-5 -41 -16 -79 -24 -85 -19 -14 -37 -50 -37 -74 0 -11 18 -39 40 -61 55 -57
54 -85 -5 -110 -58 -25 -61 -56 -10 -95 92 -71 240 -71 321 -1 l37 32 71 -13
c39 -7 75 -14 79 -16 4 -1 -8 -21 -28 -44 -19 -23 -35 -46 -35 -52 0 -41 173
-42 253 -1 52 26 117 90 117 115 0 21 151 165 173 165 10 0 31 13 47 28 27 27
39 61 93 247 12 39 13 40 67 46 83 9 126 40 149 108 19 57 14 80 -25 114 -20
18 -47 52 -60 77 -42 81 -42 81 -115 69 -79 -12 -163 -49 -182 -81 -18 -29
-39 -137 -37 -191 1 -23 1 -48 1 -56 -2 -26 -31 9 -89 108 -31 53 -79 119
-107 147 -112 112 -265 152 -395 102z m100 -121 l0 -113 -62 3 c-35 2 -96 11
-135 19 l-73 15 14 27 c35 67 172 162 233 162 23 0 23 -1 23 -113z m159 76
c56 -27 125 -82 142 -115 8 -16 5 -21 -24 -33 -32 -13 -110 -28 -209 -39 l-48
-6 0 116 0 117 43 -7 c23 -4 66 -18 96 -33z m645 -70 c5 -16 1 -25 -14 -33
-20 -11 -21 -10 -14 24 4 24 2 42 -7 54 -8 11 -6 10 8 -3 12 -11 24 -30 27
-42z m-99 23 c45 -45 44 -107 -1 -114 -17 -2 -19 2 -16 35 3 31 -1 44 -23 65
-18 18 -22 28 -13 31 23 9 28 7 53 -17z m-115 -33 c0 -10 9 -29 20 -43 11 -14
20 -32 20 -41 0 -25 62 -34 100 -14 16 8 30 22 30 30 0 9 9 15 23 15 13 0 28
5 34 11 7 7 16 3 31 -15 11 -14 25 -26 31 -26 22 0 10 -47 -20 -76 -27 -25
-37 -29 -90 -29 -53 1 -59 -1 -59 -20 0 -20 4 -21 59 -14 32 3 64 10 70 13 6
4 11 4 11 1 0 -13 -72 -35 -114 -35 -55 0 -58 -5 -85 -125 -16 -74 -25 -94
-55 -124 -33 -32 -37 -34 -60 -22 -45 24 -52 61 -33 175 10 56 17 139 17 185
0 66 5 94 21 128 21 43 49 58 49 26z m50 3 c0 -3 -4 -8 -10 -11 -5 -3 -10 -1
-10 4 0 6 5 11 10 11 6 0 10 -2 10 -4z m-298 -93 c8 -10 34 -49 56 -88 38 -64
40 -70 25 -87 -9 -10 -18 -40 -21 -67 -4 -46 -7 -51 -41 -64 -89 -35 -147 -42
-346 -42 -175 0 -212 3 -297 23 -89 21 -98 26 -98 47 0 30 43 178 69 237 l21
46 53 -14 c142 -39 326 -37 482 5 39 10 73 19 76 20 3 0 13 -7 21 -16z m135
-215 c-18 -103 -18 -144 -2 -185 17 -43 62 -72 86 -57 8 4 10 3 5 -4 -4 -7
-25 -12 -47 -12 -34 0 -39 -3 -39 -24 0 -15 -14 -35 -37 -55 -37 -32 -53 -38
-53 -22 0 5 -3 17 -7 27 -4 12 -3 15 5 10 7 -4 12 -2 12 4 0 23 -21 50 -52 66
l-31 16 44 29 44 29 8 -22 c15 -42 27 3 27 104 0 106 5 128 27 128 12 0 14 -8
10 -32z m-631 -161 c3 -3 0 -24 -6 -47 -11 -40 -12 -41 -43 -35 -107 22 -162
50 -177 91 -6 14 -8 29 -5 34 4 7 221 -32 231 -43z m554 40 c0 -33 -98 -95
-176 -112 -31 -6 -32 -5 -36 32 -3 21 -4 39 -3 40 3 5 180 51 198 52 9 1 17
-5 17 -12z m-237 -57 c3 -11 2 -32 -2 -46 -7 -26 -8 -26 -129 -31 -173 -7
-186 -1 -166 75 6 22 10 22 149 22 135 0 143 -1 148 -20z m-520 -42 l29 -15
-25 -16 c-23 -15 -26 -15 -44 6 -29 32 -34 43 -26 62 6 16 7 16 22 -3 9 -11
29 -26 44 -34z m681 -78 c29 -35 41 -85 31 -129 -8 -36 -72 -96 -130 -122 -50
-22 -146 -35 -169 -22 -14 8 -10 15 24 52 37 39 40 47 40 97 0 30 7 68 15 83
21 41 72 71 122 71 34 0 46 -5 67 -30z m-501 11 c95 -36 87 -163 -11 -191 -64
-17 -142 -12 -198 14 -68 32 -72 47 -15 66 41 14 46 19 53 55 5 22 16 46 25
53 20 14 111 16 146 3z m268 -9 c-5 -9 -6 -42 -4 -74 l6 -58 -56 0 c-31 0 -68
5 -82 12 -22 10 -25 17 -23 50 1 28 -4 44 -22 63 l-24 26 106 -2 c92 -2 106
-5 99 -17z"/>
<path d="M913 1046 c-9 -19 -25 -38 -37 -41 -19 -6 -19 -8 -3 -12 15 -4 17
-11 11 -36 -14 -68 -32 -97 -58 -97 -15 0 -26 -4 -26 -10 0 -5 15 -10 33 -10
37 0 44 9 72 98 10 30 22 52 31 52 18 0 18 18 0 22 -25 6 0 48 29 48 14 0 25
5 25 10 0 6 -14 10 -30 10 -25 0 -33 -6 -47 -34z"/>
<path d="M1190 1060 c-8 -5 -33 -7 -55 -4 -31 5 -46 1 -67 -16 -27 -21 -39
-70 -18 -70 6 0 10 11 10 25 0 26 37 51 52 36 11 -10 -17 -112 -33 -122 -18
-11 35 -24 58 -14 16 7 16 9 2 12 -15 4 -15 9 -2 62 13 52 18 60 44 65 17 3
29 12 29 21 0 18 0 18 -20 5z"/>
<path d="M588 1044 c-47 -25 -63 -79 -31 -105 18 -15 18 -15 -3 36 -3 8 5 25
22 40 28 26 54 35 37 13 -5 -7 -10 -26 -11 -43 -2 -16 -12 -42 -23 -57 l-20
-28 43 1 c24 1 35 3 26 6 -20 5 -20 8 -12 40 4 13 10 20 15 17 5 -2 22 2 38
11 17 8 32 15 35 15 3 0 -1 -20 -8 -45 -12 -38 -12 -45 0 -45 7 0 17 12 20 28
7 27 31 62 44 62 4 0 6 -19 6 -42 -1 -38 2 -43 22 -46 30 -4 72 33 72 64 0 35
-26 55 -55 44 -16 -6 -25 -6 -25 1 0 6 -8 6 -21 -2 -17 -8 -23 -8 -29 1 -4 7
-13 9 -19 6 -6 -4 -11 -1 -11 8 0 34 -65 46 -112 20z m74 -16 c7 -19 -2 -38
-16 -38 -9 0 -12 9 -8 25 5 27 17 33 24 13z m164 -52 c6 -16 -12 -56 -25 -56
-14 0 -19 23 -10 48 9 25 27 29 35 8z"/>
<path d="M980 1041 c0 -5 4 -11 9 -13 11 -4 -16 -112 -29 -116 -31 -11 5 -22
40 -13 3 0 5 18 6 39 0 55 12 92 29 92 8 0 15 5 15 10 0 6 -16 10 -35 10 -19
0 -35 -4 -35 -9z"/>
<path d="M1604 338 l-19 -23 23 19 c21 18 27 26 19 26 -2 0 -12 -10 -23 -22z"/>
</g>
</svg>
